<?xml version="1.0" encoding="utf-8"?>
<!-- Generator: Adobe Illustrator 19.0.1, SVG Export Plug-In . SVG Version: 6.00 Build 0)  -->
<svg version="1.1" id="Layer_1" xmlns="http://www.w3.org/2000/svg" xmlns:xlink="http://www.w3.org/1999/xlink" x="0px" y="0px"
	 viewBox="144 343.6 323.2 61.3" style="enable-background:new 144 343.6 323.2 61.3;" xml:space="preserve">
<style type="text/css">
	.st0{fill:#54585A;}
	.st1{fill:url(#SVGID_1_);}
	.st2{fill:url(#SVGID_2_);}
	.st3{fill:url(#SVGID_3_);}
	.st4{fill:#683431;}
</style>
<g>
	<path class="st0" d="M144,346.1c0-0.9,0.7-1.6,1.6-1.6h34c1,0,1.6,0.8,1.6,1.6v2.5c0,0.9-0.7,1.6-1.6,1.6h-29v23.7h24.8
		c0.9,0,1.6,0.8,1.6,1.6v2.5c0,0.9-0.8,1.6-1.6,1.6h-24.8v23.6c0,0.9-0.8,1.6-1.6,1.6h-3.4c-1,0-1.6-0.8-1.6-1.6V346.1z"/>
	<path class="st0" d="M275,346.1c0-0.9,0.7-1.6,1.6-1.6H299c10.4,0,18.8,8.1,18.8,18.4c0,7.9-5.3,14.6-12.8,17.6l11.8,21.9
		c0.6,1.1,0,2.5-1.5,2.5H311c-0.8,0-1.2-0.4-1.4-0.8l-11.5-22.9h-16.5v22c0,0.9-0.8,1.6-1.6,1.6h-3.4c-1,0-1.6-0.8-1.6-1.6V346.1z
		 M298.6,375.5c6.6,0,12.4-5.5,12.4-12.6c0-6.6-5.8-12.2-12.4-12.2h-16.8v24.8L298.6,375.5L298.6,375.5z"/>
	<path class="st0" d="M351.9,350.2h-15c-0.9,0-1.6-0.8-1.6-1.6v-2.5c0-0.9,0.7-1.6,1.6-1.6h36.6c1,0,1.6,0.8,1.6,1.6v2.5
		c0,0.9-0.7,1.6-1.6,1.6h-15v53c0,0.9-0.8,1.6-1.6,1.6h-3.3c-0.9,0-1.6-0.8-1.6-1.6v-53H351.9z"/>
	<path class="st0" d="M396.9,346.1c0-0.9,0.8-1.6,1.6-1.6h3.5c0.9,0,1.6,0.8,1.6,1.6v57.2c0,0.9-0.8,1.6-1.6,1.6h-3.5
		c-0.9,0-1.6-0.8-1.6-1.6V346.1z"/>
	<path class="st0" d="M429.6,395.8c0.4-0.5,0.9-1.1,1.3-1.6c0.9-1.1,1.8-1.8,3-0.8c0.6,0.5,6.9,6.6,14.6,6.6c7,0,11.6-4.4,11.6-9.5
		c0-6-5.2-9.5-15.1-13.6c-9.5-4.1-15.2-8-15.2-17.9c0-5.9,4.7-15.4,18.4-15.4c8.5,0,14.8,4.4,14.8,4.4c0.5,0.3,1.6,1.3,0.5,2.9
		c-0.3,0.5-0.7,1.1-1,1.6c-0.8,1.2-1.6,1.6-3,0.8c-0.6-0.3-6-4-11.3-4c-9.2,0-11.9,5.9-11.9,9.5c0,5.8,4.4,9.2,11.7,12.2
		c11.7,4.7,19.2,9.2,19.2,19.2c0,9-8.6,15.5-18.7,15.5c-10.2,0-17.1-6-18.2-7C429.4,398.2,428.6,397.5,429.6,395.8z"/>
	<g>
		
			<linearGradient id="SVGID_1_" gradientUnits="userSpaceOnUse" x1="208.3857" y1="415.9757" x2="253.526" y2="428.071" gradientTransform="matrix(1 0 0 -1 0 792)">
			<stop  offset="0.3" style="stop-color:#A4493D"/>
			<stop  offset="1" style="stop-color:#683431"/>
		</linearGradient>
		<path class="st1" d="M253,362.2c-1.6-1.3-3.2-2.5-5-3.6c-1.4-0.8-2.8-1.6-4.2-2.3c-1.9-0.9-3.8-1.6-5.9-2.2
			c-3.8-1.1-7.9-1.7-12-1.7c-4.2,0-8.2,0.6-12,1.7c-2,0.6-4,1.4-5.9,2.2c-0.5,1.8-0.9,3.7-1.1,5.6c-0.1,1.2-0.2,2.3-0.2,3.5
			c0,0.3,0,0.5,0,0.8c0,1.9,0.2,3.8,0.6,5.6c1.6,8.7,6.6,16.2,13.5,21.3c0.1,0,0.2,0,0.2,0c0.9-0.3,1.7-0.6,2.5-1s1.6-0.8,2.2-1.3
			c0,0,0.1,0,0.1-0.1c-7.7-4.6-13.1-12.6-14.1-21.9c-0.1-1.1-0.2-2.2-0.2-3.4c0-0.6,0-1.3,0.1-1.9c0.1-1.4,0.3-2.8,0.6-4.1
			c4.3-1.7,8.9-2.6,13.7-2.6s9.5,0.9,13.7,2.6c1.8,0.7,3.6,1.6,5.3,2.5c1.3,0.8,2.6,1.6,3.8,2.5c1.6,1.2,3,2.5,4.4,3.9
			c0.1-0.9,0.1-1.9,0.1-2.9C253.2,364.4,253.1,363.3,253,362.2z"/>
		
			<linearGradient id="SVGID_2_" gradientUnits="userSpaceOnUse" x1="233.1613" y1="430.8622" x2="225.4494" y2="387.1266" gradientTransform="matrix(1 0 0 -1 0 792)">
			<stop  offset="0.3" style="stop-color:#A4493D"/>
			<stop  offset="1" style="stop-color:#683431"/>
		</linearGradient>
		<path class="st2" d="M248.5,368.9c-1.1-1-2.2-1.8-3.4-2.7c-1.5-1-3.2-2-4.9-2.7c-4.3-2-9.2-3.1-14.3-3.1s-9.9,1.1-14.3,3.1
			c0,0.1,0,0.1-0.1,0.2c-0.1,0.6-0.3,1.5-0.3,2.1c0,1.1,0.2,1.9,0.4,2.9l0.1,0.1c4.2-2.3,9-3.6,14.1-3.6s9.9,1.3,14.1,3.6
			c1.6,0.9,3,1.9,4.4,3c1.1,0.9,2.1,1.8,3,2.9c-2,7.8-6.3,14.6-12.3,19.6c-1.6,1.3-3.3,2.6-5.1,3.6c-1.4,0.8-2.8,1.6-4.3,2.2
			c-1.9,0.8-3.9,1.5-6,2c1.9,1.1,3.9,2,6,2.8c2.1-0.8,4.1-1.7,6-2.8c1.5-0.9,2.9-1.8,4.3-2.8c1.8-1.4,3.5-2.9,5.1-4.5
			c4.3-4.4,7.6-9.8,9.7-15.8c0.7-2,1.2-4,1.6-6.1C251.3,371.6,249.9,370.2,248.5,368.9z"/>
		
			<linearGradient id="SVGID_3_" gradientUnits="userSpaceOnUse" x1="233.8045" y1="401.1382" x2="205.2246" y2="435.1984" gradientTransform="matrix(1 0 0 -1 0 792)">
			<stop  offset="0.3" style="stop-color:#A4493D"/>
			<stop  offset="1" style="stop-color:#683431"/>
		</linearGradient>
		<path class="st3" d="M240.1,368.9c-1.1,9.3-6.5,17.3-14.1,21.9c-1.6,1-3.3,1.8-5.1,2.4c-1.4,0.5-2.8,0.9-4.3,1.2
			c-5.9-5-10.3-11.9-12.3-19.6c-0.5-1.9-0.8-3.8-1-5.8c-0.1-1.1-0.2-2.3-0.2-3.5c0-0.3,0-0.7,0-1c0.1-2,0.3-3.9,0.6-5.9
			c-1.8,1.1-3.4,2.3-5,3.6c-0.1,1.1-0.1,2.2-0.1,3.3c0,1,0,1.9,0.1,2.9c0.1,1.6,0.3,3.2,0.6,4.7c0.4,2.1,0.9,4.1,1.6,6.1
			c2,6,5.4,11.3,9.7,15.8c1.6,1.6,3.3,3.1,5.1,4.5c2.1-0.3,4-0.8,6-1.4c1.5-0.5,2.9-1.1,4.3-1.8c1.8-0.9,3.5-1.9,5.1-3.1
			c6.9-5,11.8-12.6,13.5-21.3c0,0,0-0.2-0.1-0.2c-0.6-0.6-1.2-1.1-1.9-1.5c-0.8-0.5-1.4-0.8-2.3-1.2
			C240.2,368.9,240.1,368.9,240.1,368.9z"/>
		<path class="st4" d="M250.1,349.3c-2.1-1.1-4.2-2.2-6.5-3c-1.9-0.7-3.9-1.3-5.9-1.8c-2.6-0.6-5.2-1.1-7.9-1.3
			c-1.5-0.1-3-0.2-4.5-0.2c-1.4,0-2.9,0.1-4.3,0.2c-2.7,0.2-5.3,0.7-7.9,1.3c-1.6,0.4-3.2,0.9-4.8,1.4c-2.2,0.8-4.4,1.7-6.5,2.8
			c-1,2.2-1.7,4.5-2.3,6.9c1.8-1.2,3.7-2.3,5.7-3.2c1.3-0.6,2.7-1.2,4-1.7c2.2-0.8,4.4-1.4,6.7-1.9c3-0.6,6.1-0.9,9.4-0.9
			c3.3,0,6.4,0.3,9.5,1c2.3,0.5,4.5,1.1,6.7,1.9c1.7,0.6,3.4,1.4,5.1,2.2c2,1,3.8,2.2,5.6,3.4C251.8,353.9,251,351.5,250.1,349.3z"
			/>
	</g>
</g>
</svg>
